<svg width="30" height="24" viewBox="0 0 30 24" fill="none" xmlns="http://www.w3.org/2000/svg">
<g clip-path="url(#clip0_70_210)">
<path d="M16.7344 12.9438C17.4319 13.9713 18.2409 14.7447 19.1617 15.2642C20.0963 15.7722 21.1494 16.0262 22.3212 16.0262C23.7301 16.0262 24.881 15.6395 25.7737 14.8659C26.6665 14.0809 27.1129 13.0823 27.113 11.8702C27.113 10.7041 26.7015 9.73439 25.8785 8.96091C25.0554 8.18747 24.0231 7.80066 22.7816 7.80066C21.6516 7.80066 20.6263 8.18738 19.7057 8.96091C18.7988 9.72286 17.8085 11.0505 16.7343 12.9438M14.1815 11.0908C13.498 10.0749 12.6889 9.31303 11.7543 8.80505C10.8336 8.29716 9.78047 8.04314 8.59475 8.04314C7.18582 8.04314 6.03499 8.42986 5.14222 9.20339C4.2494 9.9653 3.80307 10.9523 3.80307 12.1645C3.80307 13.3305 4.21456 14.3003 5.03755 15.0737C5.86054 15.8472 6.89287 16.234 8.13443 16.234C9.26441 16.234 10.2827 15.853 11.1895 15.0911C12.1101 14.3291 13.1075 12.9958 14.1817 11.0909M15.6674 14.2598C14.6769 15.8299 13.6376 16.9786 12.5496 17.7059C11.4754 18.4332 10.2757 18.7969 8.95045 18.7969C7.06727 18.7969 5.47 18.1504 4.15877 16.8574C2.86142 15.5644 2.21277 13.9655 2.21277 12.0607C2.21277 10.0403 2.79164 8.40675 3.94948 7.15988C5.12126 5.91314 6.64178 5.28975 8.51104 5.2897C9.83626 5.2897 11.0219 5.64759 12.0682 6.36337C13.1144 7.06758 14.1607 8.23359 15.2069 9.86138C16.1555 8.26823 17.1808 7.09645 18.2828 6.34603C19.3849 5.58413 20.6125 5.20312 21.9656 5.20312C23.8208 5.20312 25.4041 5.85539 26.7155 7.15992C28.0406 8.46445 28.7032 10.0749 28.7032 11.9913C28.7032 14.0001 28.1174 15.6279 26.9456 16.8748C25.7877 18.1099 24.2742 18.7276 22.405 18.7276C21.0797 18.7276 19.9009 18.3928 18.8687 17.7233C17.8503 17.0422 16.7832 15.8876 15.6672 14.2598" fill="black"/>
</g>
<defs>
<clipPath id="clip0_70_210">
<rect width="29" height="24" fill="white" transform="translate(0.958008)"/>
</clipPath>
</defs>
</svg>
